<svg width="102" height="18" viewBox="0 0 102 18" fill="none" xmlns="http://www.w3.org/2000/svg">
<path d="M17.1129 6.45967C17.0345 6.19689 16.8904 5.96267 16.6965 5.78294C16.5027 5.60322 16.2665 5.48499 16.0143 5.44134L12.0568 4.74614L10.2222 0.892591C10.1053 0.647268 9.92818 0.44148 9.71023 0.297806C9.49229 0.154132 9.24194 0.078125 8.98667 0.078125C8.73139 0.078125 8.48104 0.154132 8.2631 0.297806C8.04516 0.44148 7.86804 0.647268 7.75118 0.892591L5.91657 4.74614L1.95907 5.44134C1.70711 5.48567 1.47132 5.60416 1.27756 5.78381C1.0838 5.96345 0.939568 6.19732 0.860682 6.45974C0.781796 6.72216 0.771307 7.003 0.830366 7.27144C0.889425 7.53989 1.01575 7.78556 1.19548 7.9815L4.01917 11.0583L3.40799 15.3415C3.36877 15.6143 3.39992 15.8935 3.49801 16.1484C3.5961 16.4033 3.75733 16.6241 3.96396 16.7863C4.17059 16.9486 4.41463 17.0462 4.66923 17.0682C4.92383 17.0903 5.17912 17.036 5.40704 16.9114L8.98667 14.9594L12.5664 16.9114C12.7943 17.0358 13.0496 17.0898 13.3041 17.0677C13.5586 17.0455 13.8025 16.9479 14.009 16.7857C14.2156 16.6235 14.3768 16.4029 14.475 16.1481C14.5731 15.8933 14.6044 15.6142 14.5654 15.3415L13.9543 11.0583L16.778 7.9815C16.9583 7.78594 17.085 7.54026 17.1441 7.27167C17.2032 7.00307 17.1924 6.72204 17.1129 6.45967Z" fill="#FFC700"/>
<path d="M38.1845 6.45967C38.1062 6.19689 37.9621 5.96267 37.7682 5.78294C37.5743 5.60322 37.3382 5.48499 37.086 5.44134L33.1284 4.74614L31.2938 0.892591C31.177 0.647268 30.9998 0.44148 30.7819 0.297806C30.5639 0.154132 30.3136 0.078125 30.0583 0.078125C29.803 0.078125 29.5527 0.154132 29.3348 0.297806C29.1168 0.44148 28.9397 0.647268 28.8228 0.892591L26.9882 4.74614L23.0307 5.44134C22.7788 5.48567 22.543 5.60416 22.3492 5.78381C22.1555 5.96345 22.0112 6.19732 21.9323 6.45974C21.8535 6.72216 21.843 7.003 21.902 7.27144C21.9611 7.53989 22.0874 7.78556 22.2671 7.9815L25.0908 11.0583L24.4796 15.3415C24.4404 15.6143 24.4716 15.8935 24.5697 16.1484C24.6678 16.4033 24.829 16.6241 25.0356 16.7863C25.2422 16.9486 25.4863 17.0462 25.7409 17.0682C25.9955 17.0903 26.2508 17.036 26.4787 16.9114L30.0583 14.9594L33.6381 16.9114C33.866 17.0358 34.1212 17.0898 34.3757 17.0677C34.6302 17.0455 34.8741 16.9479 35.0807 16.7857C35.2873 16.6235 35.4485 16.4029 35.5466 16.1481C35.6448 15.8933 35.6761 15.6142 35.6371 15.3415L35.0259 11.0583L37.8496 7.9815C38.0299 7.78594 38.1566 7.54026 38.2157 7.27167C38.2748 7.00307 38.264 6.72204 38.1845 6.45967Z" fill="#FFC700"/>
<path d="M59.256 6.45967C59.1777 6.19689 59.0336 5.96267 58.8397 5.78294C58.6458 5.60322 58.4097 5.48499 58.1575 5.44134L54.1999 4.74614L52.3653 0.892591C52.2484 0.647268 52.0713 0.44148 51.8534 0.297806C51.6354 0.154132 51.3851 0.078125 51.1298 0.078125C50.8745 0.078125 50.6242 0.154132 50.4062 0.297806C50.1883 0.44148 50.0112 0.647268 49.8943 0.892591L48.0597 4.74614L44.1022 5.44134C43.8502 5.48567 43.6144 5.60416 43.4207 5.78381C43.2269 5.96345 43.0827 6.19732 43.0038 6.45974C42.9249 6.72216 42.9144 7.003 42.9735 7.27144C43.0326 7.53989 43.1589 7.78556 43.3386 7.9815L46.1623 11.0583L45.5511 15.3415C45.5119 15.6143 45.5431 15.8935 45.6411 16.1484C45.7392 16.4033 45.9005 16.6241 46.1071 16.7863C46.3137 16.9486 46.5578 17.0462 46.8124 17.0682C47.067 17.0903 47.3223 17.036 47.5502 16.9114L51.1298 14.9594L54.7095 16.9114C54.9375 17.0358 55.1927 17.0898 55.4472 17.0677C55.7017 17.0455 55.9456 16.9479 56.1522 16.7857C56.3587 16.6235 56.5199 16.4029 56.6181 16.1481C56.7163 15.8933 56.7476 15.6142 56.7086 15.3415L56.0974 11.0583L58.9211 7.9815C59.1014 7.78594 59.2281 7.54026 59.2872 7.27167C59.3463 7.00307 59.3355 6.72204 59.256 6.45967Z" fill="#FFC700"/>
<path d="M80.3276 6.45967C80.2492 6.19689 80.1052 5.96267 79.9113 5.78294C79.7174 5.60322 79.4813 5.48499 79.2291 5.44134L75.2715 4.74614L73.4369 0.892591C73.32 0.647268 73.1429 0.44148 72.925 0.297806C72.707 0.154132 72.4567 0.078125 72.2014 0.078125C71.9461 0.078125 71.6958 0.154132 71.4778 0.297806C71.2599 0.44148 71.0828 0.647268 70.9659 0.892591L69.1313 4.74614L65.1738 5.44134C64.9218 5.48567 64.686 5.60416 64.4923 5.78381C64.2985 5.96345 64.1543 6.19732 64.0754 6.45974C63.9965 6.72216 63.986 7.003 64.0451 7.27144C64.1041 7.53989 64.2305 7.78556 64.4102 7.9815L67.2339 11.0583L66.6227 15.3415C66.5835 15.6143 66.6146 15.8935 66.7127 16.1484C66.8108 16.4033 66.972 16.6241 67.1787 16.7863C67.3853 16.9486 67.6294 17.0462 67.884 17.0682C68.1385 17.0903 68.3938 17.036 68.6218 16.9114L72.2014 14.9594L75.7811 16.9114C76.0091 17.0358 76.2643 17.0898 76.5188 17.0677C76.7733 17.0455 77.0172 16.9479 77.2238 16.7857C77.4303 16.6235 77.5915 16.4029 77.6897 16.1481C77.7878 15.8933 77.8191 15.6142 77.7802 15.3415L77.169 11.0583L79.9927 7.9815C80.173 7.78594 80.2997 7.54026 80.3588 7.27167C80.4179 7.00307 80.4071 6.72204 80.3276 6.45967Z" fill="#FFC700"/>
<path d="M101.399 6.45967C101.321 6.19689 101.177 5.96267 100.983 5.78294C100.789 5.60322 100.553 5.48499 100.301 5.44134L96.3431 4.74614L94.5085 0.892591C94.3916 0.647268 94.2145 0.44148 93.9965 0.297806C93.7786 0.154132 93.5283 0.078125 93.273 0.078125C93.0177 0.078125 92.7674 0.154132 92.5494 0.297806C92.3315 0.44148 92.1544 0.647268 92.0375 0.892591L90.2029 4.74614L86.2454 5.44134C85.9934 5.48567 85.7576 5.60416 85.5639 5.78381C85.3701 5.96345 85.2259 6.19732 85.147 6.45974C85.0681 6.72216 85.0576 7.003 85.1167 7.27144C85.1757 7.53989 85.3021 7.78556 85.4818 7.9815L88.3055 11.0583L87.6943 15.3415C87.6551 15.6143 87.6862 15.8935 87.7843 16.1484C87.8824 16.4033 88.0436 16.6241 88.2503 16.7863C88.4569 16.9486 88.7009 17.0462 88.9555 17.0682C89.2101 17.0903 89.4654 17.036 89.6934 16.9114L93.273 14.9594L96.8527 16.9114C97.0806 17.0358 97.3359 17.0898 97.5904 17.0677C97.8449 17.0455 98.0888 16.9479 98.2954 16.7857C98.5019 16.6235 98.6631 16.4029 98.7613 16.1481C98.8594 15.8933 98.8907 15.6142 98.8518 15.3415L98.2406 11.0583L101.064 7.9815C101.245 7.78594 101.371 7.54026 101.43 7.27167C101.49 7.00307 101.479 6.72204 101.399 6.45967Z" fill="#D4D4D4"/>
</svg>
