<svg width="961" height="51" viewBox="0 0 961 51" fill="none" xmlns="http://www.w3.org/2000/svg">
<path d="M0.776 20.748C0.776 17.484 1.528 14.556 3.032 11.964C4.568 9.372 6.632 7.356 9.224 5.916C11.848 4.444 14.712 3.708 17.816 3.708C21.368 3.708 24.52 4.588 27.272 6.348C30.056 8.076 32.072 10.54 33.32 13.74H26.744C25.88 11.98 24.68 10.668 23.144 9.804C21.608 8.94 19.832 8.508 17.816 8.508C15.608 8.508 13.64 9.004 11.912 9.996C10.184 10.988 8.824 12.412 7.832 14.268C6.872 16.124 6.392 18.284 6.392 20.748C6.392 23.212 6.872 25.372 7.832 27.228C8.824 29.084 10.184 30.524 11.912 31.548C13.64 32.54 15.608 33.036 17.816 33.036C19.832 33.036 21.608 32.604 23.144 31.74C24.68 30.876 25.88 29.564 26.744 27.804H33.32C32.072 31.004 30.056 33.468 27.272 35.196C24.52 36.924 21.368 37.788 17.816 37.788C14.68 37.788 11.816 37.068 9.224 35.628C6.632 34.156 4.568 32.124 3.032 29.532C1.528 26.94 0.776 24.012 0.776 20.748ZM51.197 37.932C48.701 37.932 46.445 37.372 44.429 36.252C42.413 35.1 40.829 33.5 39.677 31.452C38.525 29.372 37.949 26.972 37.949 24.252C37.949 21.564 38.541 19.18 39.725 17.1C40.909 15.02 42.525 13.42 44.573 12.3C46.621 11.18 48.909 10.62 51.437 10.62C53.965 10.62 56.253 11.18 58.301 12.3C60.349 13.42 61.965 15.02 63.149 17.1C64.333 19.18 64.925 21.564 64.925 24.252C64.925 26.94 64.317 29.324 63.101 31.404C61.885 33.484 60.221 35.1 58.109 36.252C56.029 37.372 53.725 37.932 51.197 37.932ZM51.197 33.18C52.605 33.18 53.917 32.844 55.133 32.172C56.381 31.5 57.389 30.492 58.157 29.148C58.925 27.804 59.309 26.172 59.309 24.252C59.309 22.332 58.941 20.716 58.205 19.404C57.469 18.06 56.493 17.052 55.277 16.38C54.061 15.708 52.749 15.372 51.341 15.372C49.933 15.372 48.621 15.708 47.405 16.38C46.221 17.052 45.277 18.06 44.573 19.404C43.869 20.716 43.517 22.332 43.517 24.252C43.517 27.1 44.237 29.308 45.677 30.876C47.149 32.412 48.989 33.18 51.197 33.18ZM75.8064 14.892C76.6064 13.548 77.6624 12.508 78.9744 11.772C80.3184 11.004 81.9024 10.62 83.7264 10.62V16.284H82.3344C80.1904 16.284 78.5584 16.828 77.4384 17.916C76.3504 19.004 75.8064 20.892 75.8064 23.58V37.5H70.3344V11.052H75.8064V14.892ZM94.2283 14.94C95.1563 13.724 96.4203 12.7 98.0203 11.868C99.6203 11.036 101.428 10.62 103.444 10.62C105.748 10.62 107.844 11.196 109.732 12.348C111.652 13.468 113.156 15.052 114.244 17.1C115.332 19.148 115.876 21.5 115.876 24.156C115.876 26.812 115.332 29.196 114.244 31.308C113.156 33.388 111.652 35.02 109.732 36.204C107.844 37.356 105.748 37.932 103.444 37.932C101.428 37.932 99.6363 37.532 98.0683 36.732C96.5003 35.9 95.2203 34.876 94.2283 33.66V50.076H88.7563V11.052H94.2283V14.94ZM110.308 24.156C110.308 22.332 109.924 20.764 109.156 19.452C108.42 18.108 107.428 17.1 106.18 16.428C104.964 15.724 103.652 15.372 102.244 15.372C100.868 15.372 99.5563 15.724 98.3083 16.428C97.0923 17.132 96.1003 18.156 95.3323 19.5C94.5963 20.844 94.2283 22.428 94.2283 24.252C94.2283 26.076 94.5963 27.676 95.3323 29.052C96.1003 30.396 97.0923 31.42 98.3083 32.124C99.5563 32.828 100.868 33.18 102.244 33.18C103.652 33.18 104.964 32.828 106.18 32.124C107.428 31.388 108.42 30.332 109.156 28.956C109.924 27.58 110.308 25.98 110.308 24.156ZM132.76 37.932C130.264 37.932 128.008 37.372 125.992 36.252C123.976 35.1 122.392 33.5 121.24 31.452C120.088 29.372 119.512 26.972 119.512 24.252C119.512 21.564 120.104 19.18 121.288 17.1C122.472 15.02 124.088 13.42 126.136 12.3C128.184 11.18 130.472 10.62 133 10.62C135.528 10.62 137.816 11.18 139.864 12.3C141.912 13.42 143.528 15.02 144.712 17.1C145.896 19.18 146.488 21.564 146.488 24.252C146.488 26.94 145.88 29.324 144.664 31.404C143.448 33.484 141.784 35.1 139.672 36.252C137.592 37.372 135.288 37.932 132.76 37.932ZM132.76 33.18C134.168 33.18 135.48 32.844 136.696 32.172C137.944 31.5 138.952 30.492 139.72 29.148C140.488 27.804 140.872 26.172 140.872 24.252C140.872 22.332 140.504 20.716 139.768 19.404C139.032 18.06 138.056 17.052 136.84 16.38C135.624 15.708 134.312 15.372 132.904 15.372C131.496 15.372 130.184 15.708 128.968 16.38C127.784 17.052 126.84 18.06 126.136 19.404C125.432 20.716 125.08 22.332 125.08 24.252C125.08 27.1 125.8 29.308 127.24 30.876C128.712 32.412 130.552 33.18 132.76 33.18ZM157.369 14.892C158.169 13.548 159.225 12.508 160.537 11.772C161.881 11.004 163.465 10.62 165.289 10.62V16.284H163.897C161.753 16.284 160.121 16.828 159.001 17.916C157.913 19.004 157.369 20.892 157.369 23.58V37.5H151.897V11.052H157.369V14.892ZM168.495 24.156C168.495 21.5 169.039 19.148 170.127 17.1C171.247 15.052 172.751 13.468 174.639 12.348C176.559 11.196 178.671 10.62 180.975 10.62C183.055 10.62 184.863 11.036 186.399 11.868C187.967 12.668 189.215 13.676 190.143 14.892V11.052H195.663V37.5H190.143V33.564C189.215 34.812 187.951 35.852 186.351 36.684C184.751 37.516 182.927 37.932 180.879 37.932C178.607 37.932 176.527 37.356 174.639 36.204C172.751 35.02 171.247 33.388 170.127 31.308C169.039 29.196 168.495 26.812 168.495 24.156ZM190.143 24.252C190.143 22.428 189.759 20.844 188.991 19.5C188.255 18.156 187.279 17.132 186.063 16.428C184.847 15.724 183.535 15.372 182.127 15.372C180.719 15.372 179.407 15.724 178.191 16.428C176.975 17.1 175.983 18.108 175.215 19.452C174.479 20.764 174.111 22.332 174.111 24.156C174.111 25.98 174.479 27.58 175.215 28.956C175.983 30.332 176.975 31.388 178.191 32.124C179.439 32.828 180.751 33.18 182.127 33.18C183.535 33.18 184.847 32.828 186.063 32.124C187.279 31.42 188.255 30.396 188.991 29.052C189.759 27.676 190.143 26.076 190.143 24.252ZM209.234 15.516V30.156C209.234 31.148 209.458 31.868 209.906 32.316C210.386 32.732 211.186 32.94 212.306 32.94H215.666V37.5H211.346C208.882 37.5 206.994 36.924 205.682 35.772C204.37 34.62 203.714 32.748 203.714 30.156V15.516H200.594V11.052H203.714V4.476H209.234V11.052H215.666V15.516H209.234ZM244.949 23.628C244.949 24.62 244.885 25.516 244.757 26.316H224.549C224.709 28.428 225.493 30.124 226.901 31.404C228.309 32.684 230.037 33.324 232.085 33.324C235.029 33.324 237.109 32.092 238.325 29.628H244.229C243.429 32.06 241.973 34.06 239.861 35.628C237.781 37.164 235.189 37.932 232.085 37.932C229.557 37.932 227.285 37.372 225.269 36.252C223.285 35.1 221.717 33.5 220.565 31.452C219.445 29.372 218.885 26.972 218.885 24.252C218.885 21.532 219.429 19.148 220.517 17.1C221.637 15.02 223.189 13.42 225.173 12.3C227.189 11.18 229.493 10.62 232.085 10.62C234.581 10.62 236.805 11.164 238.757 12.252C240.709 13.34 242.229 14.876 243.317 16.86C244.405 18.812 244.949 21.068 244.949 23.628ZM239.237 21.9C239.205 19.884 238.485 18.268 237.077 17.052C235.669 15.836 233.925 15.228 231.845 15.228C229.957 15.228 228.341 15.836 226.997 17.052C225.653 18.236 224.853 19.852 224.597 21.9H239.237ZM282.915 30.684H268.947L266.547 37.5H260.835L272.787 4.092H279.123L291.075 37.5H285.315L282.915 30.684ZM281.379 26.22L275.955 10.716L270.483 26.22H281.379ZM307.36 15.516H302.464V37.5H296.944V15.516H293.824V11.052H296.944V9.18C296.944 6.14 297.744 3.932 299.344 2.556C300.976 1.148 303.52 0.443999 306.976 0.443999V5.004C305.312 5.004 304.144 5.324 303.472 5.964C302.8 6.572 302.464 7.644 302.464 9.18V11.052H307.36V15.516ZM323.297 15.516H318.401V37.5H312.881V15.516H309.761V11.052H312.881V9.18C312.881 6.14 313.681 3.932 315.281 2.556C316.913 1.148 319.457 0.443999 322.913 0.443999V5.004C321.249 5.004 320.081 5.324 319.409 5.964C318.737 6.572 318.401 7.644 318.401 9.18V11.052H323.297V15.516ZM326.323 24.156C326.323 21.5 326.867 19.148 327.955 17.1C329.075 15.052 330.579 13.468 332.467 12.348C334.387 11.196 336.499 10.62 338.803 10.62C340.883 10.62 342.691 11.036 344.227 11.868C345.795 12.668 347.043 13.676 347.971 14.892V11.052H353.491V37.5H347.971V33.564C347.043 34.812 345.779 35.852 344.179 36.684C342.579 37.516 340.755 37.932 338.707 37.932C336.435 37.932 334.355 37.356 332.467 36.204C330.579 35.02 329.075 33.388 327.955 31.308C326.867 29.196 326.323 26.812 326.323 24.156ZM347.971 24.252C347.971 22.428 347.587 20.844 346.819 19.5C346.083 18.156 345.107 17.132 343.891 16.428C342.675 15.724 341.363 15.372 339.955 15.372C338.547 15.372 337.235 15.724 336.019 16.428C334.803 17.1 333.811 18.108 333.043 19.452C332.307 20.764 331.939 22.332 331.939 24.156C331.939 25.98 332.307 27.58 333.043 28.956C333.811 30.332 334.803 31.388 336.019 32.124C337.267 32.828 338.579 33.18 339.955 33.18C341.363 33.18 342.675 32.828 343.891 32.124C345.107 31.42 346.083 30.396 346.819 29.052C347.587 27.676 347.971 26.076 347.971 24.252ZM363.462 7.548C362.47 7.548 361.638 7.212 360.966 6.54C360.294 5.868 359.958 5.036 359.958 4.044C359.958 3.052 360.294 2.22 360.966 1.548C361.638 0.875998 362.47 0.539998 363.462 0.539998C364.422 0.539998 365.238 0.875998 365.91 1.548C366.582 2.22 366.918 3.052 366.918 4.044C366.918 5.036 366.582 5.868 365.91 6.54C365.238 7.212 364.422 7.548 363.462 7.548ZM366.15 11.052V37.5H360.678V11.052H366.15ZM378.806 14.892C379.606 13.548 380.662 12.508 381.974 11.772C383.318 11.004 384.902 10.62 386.726 10.62V16.284H385.334C383.19 16.284 381.558 16.828 380.438 17.916C379.35 19.004 378.806 20.892 378.806 23.58V37.5H373.334V11.052H378.806V14.892ZM401.356 37.932C399.276 37.932 397.404 37.564 395.74 36.828C394.108 36.06 392.812 35.036 391.852 33.756C390.892 32.444 390.38 30.988 390.316 29.388H395.98C396.076 30.508 396.604 31.452 397.564 32.22C398.556 32.956 399.788 33.324 401.26 33.324C402.796 33.324 403.98 33.036 404.812 32.46C405.676 31.852 406.108 31.084 406.108 30.156C406.108 29.164 405.628 28.428 404.668 27.948C403.74 27.468 402.252 26.94 400.204 26.364C398.22 25.82 396.604 25.292 395.356 24.78C394.108 24.268 393.02 23.484 392.092 22.428C391.196 21.372 390.748 19.98 390.748 18.252C390.748 16.844 391.164 15.564 391.996 14.412C392.828 13.228 394.012 12.3 395.548 11.628C397.116 10.956 398.908 10.62 400.924 10.62C403.932 10.62 406.348 11.388 408.172 12.924C410.028 14.428 411.02 16.492 411.148 19.116H405.676C405.58 17.932 405.1 16.988 404.236 16.284C403.372 15.58 402.204 15.228 400.732 15.228C399.292 15.228 398.188 15.5 397.42 16.044C396.652 16.588 396.268 17.308 396.268 18.204C396.268 18.908 396.524 19.5 397.036 19.98C397.548 20.46 398.172 20.844 398.908 21.132C399.644 21.388 400.732 21.724 402.172 22.14C404.092 22.652 405.66 23.18 406.876 23.724C408.124 24.236 409.196 25.004 410.092 26.028C410.988 27.052 411.452 28.412 411.484 30.108C411.484 31.612 411.068 32.956 410.236 34.14C409.404 35.324 408.22 36.252 406.684 36.924C405.18 37.596 403.404 37.932 401.356 37.932ZM428.042 20.748C428.042 17.484 428.794 14.556 430.298 11.964C431.834 9.372 433.898 7.356 436.49 5.916C439.114 4.444 441.978 3.708 445.082 3.708C448.634 3.708 451.786 4.588 454.538 6.348C457.322 8.076 459.338 10.54 460.586 13.74H454.01C453.146 11.98 451.946 10.668 450.41 9.804C448.874 8.94 447.098 8.508 445.082 8.508C442.874 8.508 440.906 9.004 439.178 9.996C437.45 10.988 436.09 12.412 435.098 14.268C434.138 16.124 433.658 18.284 433.658 20.748C433.658 23.212 434.138 25.372 435.098 27.228C436.09 29.084 437.45 30.524 439.178 31.548C440.906 32.54 442.874 33.036 445.082 33.036C447.098 33.036 448.874 32.604 450.41 31.74C451.946 30.876 453.146 29.564 454.01 27.804H460.586C459.338 31.004 457.322 33.468 454.538 35.196C451.786 36.924 448.634 37.788 445.082 37.788C441.946 37.788 439.082 37.068 436.49 35.628C433.898 34.156 431.834 32.124 430.298 29.532C428.794 26.94 428.042 24.012 428.042 20.748ZM478.463 37.932C475.967 37.932 473.711 37.372 471.695 36.252C469.679 35.1 468.095 33.5 466.943 31.452C465.791 29.372 465.215 26.972 465.215 24.252C465.215 21.564 465.807 19.18 466.991 17.1C468.175 15.02 469.791 13.42 471.839 12.3C473.887 11.18 476.175 10.62 478.703 10.62C481.231 10.62 483.519 11.18 485.567 12.3C487.615 13.42 489.231 15.02 490.415 17.1C491.599 19.18 492.191 21.564 492.191 24.252C492.191 26.94 491.583 29.324 490.367 31.404C489.151 33.484 487.487 35.1 485.375 36.252C483.295 37.372 480.991 37.932 478.463 37.932ZM478.463 33.18C479.871 33.18 481.183 32.844 482.399 32.172C483.647 31.5 484.655 30.492 485.423 29.148C486.191 27.804 486.575 26.172 486.575 24.252C486.575 22.332 486.207 20.716 485.471 19.404C484.735 18.06 483.759 17.052 482.543 16.38C481.327 15.708 480.015 15.372 478.607 15.372C477.199 15.372 475.887 15.708 474.671 16.38C473.487 17.052 472.543 18.06 471.839 19.404C471.135 20.716 470.783 22.332 470.783 24.252C470.783 27.1 471.503 29.308 472.943 30.876C474.415 32.412 476.255 33.18 478.463 33.18ZM529.616 10.62C531.696 10.62 533.552 11.052 535.184 11.916C536.848 12.78 538.144 14.06 539.072 15.756C540.032 17.452 540.512 19.5 540.512 21.9V37.5H535.088V22.716C535.088 20.348 534.496 18.54 533.312 17.292C532.128 16.012 530.512 15.372 528.464 15.372C526.416 15.372 524.784 16.012 523.568 17.292C522.384 18.54 521.792 20.348 521.792 22.716V37.5H516.368V22.716C516.368 20.348 515.776 18.54 514.592 17.292C513.408 16.012 511.792 15.372 509.744 15.372C507.696 15.372 506.064 16.012 504.848 17.292C503.664 18.54 503.072 20.348 503.072 22.716V37.5H497.6V11.052H503.072V14.076C503.968 12.988 505.104 12.14 506.48 11.532C507.856 10.924 509.328 10.62 510.896 10.62C513.008 10.62 514.896 11.068 516.56 11.964C518.224 12.86 519.504 14.156 520.4 15.852C521.2 14.252 522.448 12.988 524.144 12.06C525.84 11.1 527.664 10.62 529.616 10.62ZM579.491 10.62C581.571 10.62 583.427 11.052 585.059 11.916C586.723 12.78 588.019 14.06 588.947 15.756C589.907 17.452 590.387 19.5 590.387 21.9V37.5H584.963V22.716C584.963 20.348 584.371 18.54 583.187 17.292C582.003 16.012 580.387 15.372 578.339 15.372C576.291 15.372 574.659 16.012 573.443 17.292C572.259 18.54 571.667 20.348 571.667 22.716V37.5H566.243V22.716C566.243 20.348 565.651 18.54 564.467 17.292C563.283 16.012 561.667 15.372 559.619 15.372C557.571 15.372 555.939 16.012 554.723 17.292C553.539 18.54 552.947 20.348 552.947 22.716V37.5H547.475V11.052H552.947V14.076C553.843 12.988 554.979 12.14 556.355 11.532C557.731 10.924 559.203 10.62 560.771 10.62C562.883 10.62 564.771 11.068 566.435 11.964C568.099 12.86 569.379 14.156 570.275 15.852C571.075 14.252 572.323 12.988 574.019 12.06C575.715 11.1 577.539 10.62 579.491 10.62ZM600.134 7.548C599.142 7.548 598.31 7.212 597.638 6.54C596.966 5.868 596.63 5.036 596.63 4.044C596.63 3.052 596.966 2.22 597.638 1.548C598.31 0.875998 599.142 0.539998 600.134 0.539998C601.094 0.539998 601.91 0.875998 602.582 1.548C603.254 2.22 603.59 3.052 603.59 4.044C603.59 5.036 603.254 5.868 602.582 6.54C601.91 7.212 601.094 7.548 600.134 7.548ZM602.822 11.052V37.5H597.35V11.052H602.822ZM619.606 37.932C617.526 37.932 615.654 37.564 613.99 36.828C612.358 36.06 611.062 35.036 610.102 33.756C609.142 32.444 608.63 30.988 608.566 29.388H614.23C614.326 30.508 614.854 31.452 615.814 32.22C616.806 32.956 618.038 33.324 619.51 33.324C621.046 33.324 622.23 33.036 623.062 32.46C623.926 31.852 624.358 31.084 624.358 30.156C624.358 29.164 623.878 28.428 622.918 27.948C621.99 27.468 620.502 26.94 618.454 26.364C616.47 25.82 614.854 25.292 613.606 24.78C612.358 24.268 611.27 23.484 610.342 22.428C609.446 21.372 608.998 19.98 608.998 18.252C608.998 16.844 609.414 15.564 610.246 14.412C611.078 13.228 612.262 12.3 613.798 11.628C615.366 10.956 617.158 10.62 619.174 10.62C622.182 10.62 624.598 11.388 626.422 12.924C628.278 14.428 629.27 16.492 629.398 19.116H623.926C623.83 17.932 623.35 16.988 622.486 16.284C621.622 15.58 620.454 15.228 618.982 15.228C617.542 15.228 616.438 15.5 615.67 16.044C614.902 16.588 614.518 17.308 614.518 18.204C614.518 18.908 614.774 19.5 615.286 19.98C615.798 20.46 616.422 20.844 617.158 21.132C617.894 21.388 618.982 21.724 620.422 22.14C622.342 22.652 623.91 23.18 625.126 23.724C626.374 24.236 627.446 25.004 628.342 26.028C629.238 27.052 629.702 28.412 629.734 30.108C629.734 31.612 629.318 32.956 628.486 34.14C627.654 35.324 626.47 36.252 624.934 36.924C623.43 37.596 621.654 37.932 619.606 37.932ZM645.247 37.932C643.167 37.932 641.295 37.564 639.631 36.828C637.999 36.06 636.703 35.036 635.743 33.756C634.783 32.444 634.271 30.988 634.207 29.388H639.871C639.967 30.508 640.495 31.452 641.455 32.22C642.447 32.956 643.679 33.324 645.151 33.324C646.687 33.324 647.871 33.036 648.703 32.46C649.567 31.852 649.999 31.084 649.999 30.156C649.999 29.164 649.519 28.428 648.559 27.948C647.631 27.468 646.143 26.94 644.095 26.364C642.111 25.82 640.495 25.292 639.247 24.78C637.999 24.268 636.911 23.484 635.983 22.428C635.087 21.372 634.639 19.98 634.639 18.252C634.639 16.844 635.055 15.564 635.887 14.412C636.719 13.228 637.903 12.3 639.439 11.628C641.007 10.956 642.799 10.62 644.815 10.62C647.823 10.62 650.239 11.388 652.063 12.924C653.919 14.428 654.911 16.492 655.039 19.116H649.567C649.471 17.932 648.991 16.988 648.127 16.284C647.263 15.58 646.095 15.228 644.623 15.228C643.183 15.228 642.079 15.5 641.311 16.044C640.543 16.588 640.159 17.308 640.159 18.204C640.159 18.908 640.415 19.5 640.927 19.98C641.439 20.46 642.063 20.844 642.799 21.132C643.535 21.388 644.623 21.724 646.063 22.14C647.983 22.652 649.551 23.18 650.767 23.724C652.015 24.236 653.087 25.004 653.983 26.028C654.879 27.052 655.343 28.412 655.375 30.108C655.375 31.612 654.959 32.956 654.127 34.14C653.295 35.324 652.111 36.252 650.575 36.924C649.071 37.596 647.295 37.932 645.247 37.932ZM664.072 7.548C663.08 7.548 662.248 7.212 661.576 6.54C660.904 5.868 660.568 5.036 660.568 4.044C660.568 3.052 660.904 2.22 661.576 1.548C662.248 0.875998 663.08 0.539998 664.072 0.539998C665.032 0.539998 665.848 0.875998 666.52 1.548C667.192 2.22 667.528 3.052 667.528 4.044C667.528 5.036 667.192 5.868 666.52 6.54C665.848 7.212 665.032 7.548 664.072 7.548ZM666.76 11.052V37.5H661.288V11.052H666.76ZM685.416 37.932C682.92 37.932 680.664 37.372 678.648 36.252C676.632 35.1 675.048 33.5 673.896 31.452C672.744 29.372 672.168 26.972 672.168 24.252C672.168 21.564 672.76 19.18 673.944 17.1C675.128 15.02 676.744 13.42 678.792 12.3C680.84 11.18 683.128 10.62 685.656 10.62C688.184 10.62 690.472 11.18 692.52 12.3C694.568 13.42 696.184 15.02 697.368 17.1C698.552 19.18 699.144 21.564 699.144 24.252C699.144 26.94 698.536 29.324 697.32 31.404C696.104 33.484 694.44 35.1 692.328 36.252C690.248 37.372 687.944 37.932 685.416 37.932ZM685.416 33.18C686.824 33.18 688.136 32.844 689.352 32.172C690.6 31.5 691.608 30.492 692.376 29.148C693.144 27.804 693.528 26.172 693.528 24.252C693.528 22.332 693.16 20.716 692.424 19.404C691.688 18.06 690.712 17.052 689.496 16.38C688.28 15.708 686.968 15.372 685.56 15.372C684.152 15.372 682.84 15.708 681.624 16.38C680.44 17.052 679.496 18.06 678.792 19.404C678.088 20.716 677.736 22.332 677.736 24.252C677.736 27.1 678.456 29.308 679.896 30.876C681.368 32.412 683.208 33.18 685.416 33.18ZM717.897 10.62C719.977 10.62 721.833 11.052 723.465 11.916C725.129 12.78 726.425 14.06 727.353 15.756C728.281 17.452 728.745 19.5 728.745 21.9V37.5H723.321V22.716C723.321 20.348 722.729 18.54 721.545 17.292C720.361 16.012 718.745 15.372 716.697 15.372C714.649 15.372 713.017 16.012 711.801 17.292C710.617 18.54 710.025 20.348 710.025 22.716V37.5H704.553V11.052H710.025V14.076C710.921 12.988 712.057 12.14 713.433 11.532C714.841 10.924 716.329 10.62 717.897 10.62ZM745.325 37.932C743.245 37.932 741.373 37.564 739.709 36.828C738.077 36.06 736.781 35.036 735.821 33.756C734.861 32.444 734.349 30.988 734.285 29.388H739.949C740.045 30.508 740.573 31.452 741.533 32.22C742.525 32.956 743.757 33.324 745.229 33.324C746.765 33.324 747.949 33.036 748.781 32.46C749.645 31.852 750.077 31.084 750.077 30.156C750.077 29.164 749.597 28.428 748.637 27.948C747.709 27.468 746.221 26.94 744.173 26.364C742.189 25.82 740.573 25.292 739.325 24.78C738.077 24.268 736.989 23.484 736.061 22.428C735.165 21.372 734.717 19.98 734.717 18.252C734.717 16.844 735.133 15.564 735.965 14.412C736.797 13.228 737.981 12.3 739.517 11.628C741.085 10.956 742.877 10.62 744.893 10.62C747.901 10.62 750.317 11.388 752.141 12.924C753.997 14.428 754.989 16.492 755.117 19.116H749.645C749.549 17.932 749.069 16.988 748.205 16.284C747.341 15.58 746.173 15.228 744.701 15.228C743.261 15.228 742.157 15.5 741.389 16.044C740.621 16.588 740.237 17.308 740.237 18.204C740.237 18.908 740.493 19.5 741.005 19.98C741.517 20.46 742.141 20.844 742.877 21.132C743.613 21.388 744.701 21.724 746.141 22.14C748.061 22.652 749.629 23.18 750.845 23.724C752.093 24.236 753.165 25.004 754.061 26.028C754.957 27.052 755.421 28.412 755.453 30.108C755.453 31.612 755.037 32.956 754.205 34.14C753.373 35.324 752.189 36.252 750.653 36.924C749.149 37.596 747.373 37.932 745.325 37.932ZM772.01 20.748C772.01 17.484 772.762 14.556 774.266 11.964C775.802 9.372 777.866 7.356 780.458 5.916C783.082 4.444 785.946 3.708 789.05 3.708C792.602 3.708 795.754 4.588 798.506 6.348C801.29 8.076 803.306 10.54 804.554 13.74H797.978C797.114 11.98 795.914 10.668 794.378 9.804C792.842 8.94 791.066 8.508 789.05 8.508C786.842 8.508 784.874 9.004 783.146 9.996C781.418 10.988 780.058 12.412 779.066 14.268C778.106 16.124 777.626 18.284 777.626 20.748C777.626 23.212 778.106 25.372 779.066 27.228C780.058 29.084 781.418 30.524 783.146 31.548C784.874 32.54 786.842 33.036 789.05 33.036C791.066 33.036 792.842 32.604 794.378 31.74C795.914 30.876 797.114 29.564 797.978 27.804H804.554C803.306 31.004 801.29 33.468 798.506 35.196C795.754 36.924 792.602 37.788 789.05 37.788C785.914 37.788 783.05 37.068 780.458 35.628C777.866 34.156 775.802 32.124 774.266 29.532C772.762 26.94 772.01 24.012 772.01 20.748ZM835.199 23.628C835.199 24.62 835.135 25.516 835.007 26.316H814.799C814.959 28.428 815.743 30.124 817.151 31.404C818.559 32.684 820.287 33.324 822.335 33.324C825.279 33.324 827.359 32.092 828.575 29.628H834.479C833.679 32.06 832.223 34.06 830.111 35.628C828.031 37.164 825.439 37.932 822.335 37.932C819.807 37.932 817.535 37.372 815.519 36.252C813.535 35.1 811.967 33.5 810.815 31.452C809.695 29.372 809.135 26.972 809.135 24.252C809.135 21.532 809.679 19.148 810.767 17.1C811.887 15.02 813.439 13.42 815.423 12.3C817.439 11.18 819.743 10.62 822.335 10.62C824.831 10.62 827.055 11.164 829.007 12.252C830.959 13.34 832.479 14.876 833.567 16.86C834.655 18.812 835.199 21.068 835.199 23.628ZM829.487 21.9C829.455 19.884 828.735 18.268 827.327 17.052C825.919 15.836 824.175 15.228 822.095 15.228C820.207 15.228 818.591 15.836 817.247 17.052C815.903 18.236 815.103 19.852 814.847 21.9H829.487ZM846.056 14.892C846.856 13.548 847.912 12.508 849.224 11.772C850.568 11.004 852.152 10.62 853.976 10.62V16.284H852.584C850.44 16.284 848.808 16.828 847.688 17.916C846.6 19.004 846.056 20.892 846.056 23.58V37.5H840.584V11.052H846.056V14.892ZM865.39 15.516V30.156C865.39 31.148 865.614 31.868 866.062 32.316C866.542 32.732 867.342 32.94 868.462 32.94H871.822V37.5H867.502C865.038 37.5 863.15 36.924 861.838 35.772C860.526 34.62 859.87 32.748 859.87 30.156V15.516H856.75V11.052H859.87V4.476H865.39V11.052H871.822V15.516H865.39ZM879.65 7.548C878.658 7.548 877.826 7.212 877.154 6.54C876.482 5.868 876.146 5.036 876.146 4.044C876.146 3.052 876.482 2.22 877.154 1.548C877.826 0.875998 878.658 0.539998 879.65 0.539998C880.61 0.539998 881.426 0.875998 882.098 1.548C882.77 2.22 883.106 3.052 883.106 4.044C883.106 5.036 882.77 5.868 882.098 6.54C881.426 7.212 880.61 7.548 879.65 7.548ZM882.338 11.052V37.5H876.866V11.052H882.338ZM900.61 15.516H895.714V37.5H890.194V15.516H887.074V11.052H890.194V9.18C890.194 6.14 890.994 3.932 892.594 2.556C894.226 1.148 896.77 0.443999 900.226 0.443999V5.004C898.562 5.004 897.394 5.324 896.722 5.964C896.05 6.572 895.714 7.644 895.714 9.18V11.052H900.61V15.516ZM929.699 23.628C929.699 24.62 929.635 25.516 929.507 26.316H909.299C909.459 28.428 910.243 30.124 911.651 31.404C913.059 32.684 914.787 33.324 916.835 33.324C919.779 33.324 921.859 32.092 923.075 29.628H928.979C928.179 32.06 926.723 34.06 924.611 35.628C922.531 37.164 919.939 37.932 916.835 37.932C914.307 37.932 912.035 37.372 910.019 36.252C908.035 35.1 906.467 33.5 905.315 31.452C904.195 29.372 903.635 26.972 903.635 24.252C903.635 21.532 904.179 19.148 905.267 17.1C906.387 15.02 907.939 13.42 909.923 12.3C911.939 11.18 914.243 10.62 916.835 10.62C919.331 10.62 921.555 11.164 923.507 12.252C925.459 13.34 926.979 14.876 928.067 16.86C929.155 18.812 929.699 21.068 929.699 23.628ZM923.987 21.9C923.955 19.884 923.235 18.268 921.827 17.052C920.419 15.836 918.675 15.228 916.595 15.228C914.707 15.228 913.091 15.836 911.747 17.052C910.403 18.236 909.603 19.852 909.347 21.9H923.987ZM933.26 24.156C933.26 21.5 933.804 19.148 934.892 17.1C936.012 15.052 937.516 13.468 939.404 12.348C941.324 11.196 943.452 10.62 945.788 10.62C947.516 10.62 949.212 11.004 950.876 11.772C952.572 12.508 953.916 13.5 954.908 14.748V1.98H960.428V37.5H954.908V33.516C954.012 34.796 952.764 35.852 951.164 36.684C949.596 37.516 947.788 37.932 945.74 37.932C943.436 37.932 941.324 37.356 939.404 36.204C937.516 35.02 936.012 33.388 934.892 31.308C933.804 29.196 933.26 26.812 933.26 24.156ZM954.908 24.252C954.908 22.428 954.524 20.844 953.756 19.5C953.02 18.156 952.044 17.132 950.828 16.428C949.612 15.724 948.3 15.372 946.892 15.372C945.484 15.372 944.172 15.724 942.956 16.428C941.74 17.1 940.748 18.108 939.98 19.452C939.244 20.764 938.876 22.332 938.876 24.156C938.876 25.98 939.244 27.58 939.98 28.956C940.748 30.332 941.74 31.388 942.956 32.124C944.204 32.828 945.516 33.18 946.892 33.18C948.3 33.18 949.612 32.828 950.828 32.124C952.044 31.42 953.02 30.396 953.756 29.052C954.524 27.676 954.908 26.076 954.908 24.252Z" fill="black" fill-opacity="0.25"/>
</svg>
