<svg width="36" height="30" viewBox="0 0 36 30" fill="none" xmlns="http://www.w3.org/2000/svg">
<path d="M18 15L4.572 9.59875L5.4 29.5H1.8L2.664 8.81938L0 7.75L18 0.5L36 7.75L18 15ZM18 5.9375C17.01 5.9375 16.2 6.33625 16.2 6.84375C16.2 7.35125 17.01 7.75 18 7.75C18.99 7.75 19.8 7.35125 19.8 6.84375C19.8 6.33625 18.99 5.9375 18 5.9375ZM18 16.8125L28.026 12.7706C29.304 14.4744 30.186 16.5225 30.474 18.7519C29.934 18.6794 29.376 18.625 28.8 18.625C24.21 18.625 20.196 21.1081 18 24.8056C16.8848 22.9225 15.3034 21.363 13.4103 20.2796C11.5173 19.1963 9.37742 18.6261 7.2 18.625C6.624 18.625 6.066 18.6794 5.526 18.7519C5.814 16.5225 6.696 14.4744 7.974 12.7706L18 16.8125Z" fill="white"/>
</svg>
