<svg width="38" height="38" viewBox="0 0 38 38" fill="none" xmlns="http://www.w3.org/2000/svg">
<path fill-rule="evenodd" clip-rule="evenodd" d="M8.60011 16.7503C8.60011 16.7503 9.3481 16.6494 10.4334 16.3598C13.2952 15.5962 18.5 13.5236 18.5 8.53888C18.5002 7.8115 18.3571 7.0912 18.0789 6.41913C17.8006 5.74707 17.3927 5.13643 16.8783 4.62209C16.364 4.10775 15.7534 3.6998 15.0813 3.42155C14.4092 3.14331 13.6889 3.00022 12.9616 3.00046H7.53863C6.80538 2.99102 6.07755 3.1273 5.39738 3.40138C4.71722 3.67545 4.09825 4.08187 3.57639 4.59706C3.05454 5.11224 2.64019 5.72593 2.35739 6.40251C2.07458 7.0791 1.92896 7.80511 1.92896 8.53842C1.92896 9.27174 2.07458 9.99775 2.35739 10.6743C2.64019 11.3509 3.05454 11.9646 3.57639 12.4798C4.09825 12.995 4.71722 13.4014 5.39738 13.6755C6.07755 13.9495 6.80538 14.0858 7.53863 14.0764H8.60011V16.7503ZM10.4334 12.2431H7.53863C7.04722 12.2508 6.55919 12.1607 6.10295 11.978C5.6467 11.7953 5.23137 11.5236 4.88113 11.1789C4.53088 10.8341 4.25273 10.4231 4.06287 9.96976C3.87301 9.51645 3.77524 9.02989 3.77524 8.53842C3.77524 8.04696 3.87301 7.5604 4.06287 7.10709C4.25273 6.65377 4.53088 6.24276 4.88113 5.89799C5.23137 5.55321 5.6467 5.28156 6.10295 5.09885C6.55919 4.91615 7.04722 4.82604 7.53863 4.83377H12.9616C13.4482 4.83353 13.9301 4.9292 14.3797 5.11531C14.8294 5.30142 15.2379 5.57433 15.582 5.91843C15.9261 6.26253 16.199 6.67108 16.3851 7.12071C16.5712 7.57034 16.6669 8.05225 16.6667 8.53888C16.6667 10.9066 15.0094 12.4832 12.7535 13.5713C12.0049 13.9274 11.2291 14.2232 10.4334 14.4559V12.2431ZM9.79176 26.8335C11.8176 26.8335 13.4584 25.1926 13.4584 23.1668C13.4584 21.141 11.8176 19.5002 9.79176 19.5002C7.76596 19.5002 6.12515 21.141 6.12515 23.1668C6.12515 25.1926 7.76596 26.8335 9.79176 26.8335ZM11.6251 23.1668C11.6251 23.6531 11.4319 24.1194 11.0881 24.4632C10.7443 24.807 10.278 25.0002 9.79176 25.0002C9.30554 25.0002 8.83923 24.807 8.49542 24.4632C8.15161 24.1194 7.95846 23.6531 7.95846 23.1668C7.95846 22.6806 8.15161 22.2143 8.49542 21.8705C8.83923 21.5267 9.30554 21.3335 9.79176 21.3335C10.278 21.3335 10.7443 21.5267 11.0881 21.8705C11.4319 22.2143 11.6251 22.6806 11.6251 23.1668ZM2.00021 32.5781C2.00021 29.9767 7.19122 28.6668 9.79176 28.6668C12.3923 28.6668 17.5833 29.9776 17.5833 32.5781V36H2.00021V32.5781ZM3.83351 34.1667V32.5781C3.83351 32.569 3.83351 32.5506 3.85735 32.5048C3.88668 32.448 3.95359 32.348 4.09843 32.2142C4.40001 31.9346 4.90508 31.6294 5.60449 31.348C7.00697 30.7842 8.72111 30.5001 9.79176 30.5001C10.8624 30.5001 12.5775 30.7842 13.979 31.348C14.6775 31.6294 15.1835 31.9346 15.4851 32.2142C15.6299 32.348 15.6968 32.448 15.7262 32.5039C15.75 32.5497 15.75 32.5699 15.75 32.5772V34.1667H3.83351ZM30.8748 23.1668C30.8748 25.1926 29.234 26.8335 27.2082 26.8335C25.1824 26.8335 23.5416 25.1926 23.5416 23.1668C23.5416 21.141 25.1824 19.5002 27.2082 19.5002C29.234 19.5002 30.8748 21.141 30.8748 23.1668ZM27.2082 25.0002C27.6944 25.0002 28.1607 24.807 28.5045 24.4632C28.8483 24.1194 29.0415 23.6531 29.0415 23.1668C29.0415 22.6806 28.8483 22.2143 28.5045 21.8705C28.1607 21.5267 27.6944 21.3335 27.2082 21.3335C26.722 21.3335 26.2557 21.5267 25.9118 21.8705C25.568 22.2143 25.3749 22.6806 25.3749 23.1668C25.3749 23.6531 25.568 24.1194 25.9118 24.4632C26.2557 24.807 26.722 25.0002 27.2082 25.0002ZM19.4166 32.5781C19.4166 29.9767 24.6076 28.6668 27.2082 28.6668C29.8087 28.6668 34.9997 29.9776 34.9997 32.5781V36H19.4166V32.5781ZM21.2499 34.1667V32.5781C21.2499 32.569 21.2499 32.5506 21.2738 32.5048C21.3031 32.448 21.37 32.348 21.5139 32.2142C21.8164 31.9346 22.3224 31.6294 23.0209 31.348C24.4234 30.7842 26.1375 30.5001 27.2082 30.5001C28.2788 30.5001 29.9939 30.7842 31.3955 31.348C32.094 31.6294 32.6 31.9346 32.9024 32.2142C33.0464 32.348 33.1133 32.448 33.1426 32.5039C33.1664 32.5497 33.1664 32.5699 33.1664 32.5772V34.1667H21.2499ZM27.2999 17.2141C28.3723 17.5514 29.1332 17.6669 29.1332 17.6669V14.993H29.4613C30.1946 15.0025 30.9224 14.8662 31.6026 14.5921C32.2827 14.318 32.9017 13.9116 33.4236 13.3964C33.9454 12.8813 34.3598 12.2676 34.6426 11.591C34.9254 10.9144 35.071 10.1884 35.071 9.45508C35.071 8.72177 34.9254 7.99575 34.6426 7.31917C34.3598 6.64258 33.9454 6.02889 33.4236 5.51371C32.9017 4.99853 32.2827 4.59211 31.6026 4.31803C30.9224 4.04395 30.1946 3.90768 29.4613 3.91711H25.8717C25.1443 3.91687 24.424 4.05996 23.752 4.33821C23.0799 4.61646 22.4693 5.0244 21.9549 5.53874C21.4406 6.05308 21.0326 6.66373 20.7544 7.33579C20.4761 8.00785 20.333 8.72815 20.3333 9.45554C20.3333 14.3101 24.7213 16.4038 27.2999 17.2141ZM29.4613 13.1597H27.2999V15.28C26.7178 15.072 26.1522 14.8208 25.6077 14.5283C23.6974 13.4916 22.1666 11.936 22.1666 9.45462C22.1665 8.96807 22.2622 8.48626 22.4484 8.03673C22.6346 7.5872 22.9075 7.17876 23.2516 6.83476C23.5957 6.49076 24.0042 6.21793 24.4537 6.03188C24.9033 5.84582 25.3852 5.75018 25.8717 5.75042H29.4613C29.9527 5.74269 30.4408 5.8328 30.897 6.01551C31.3533 6.19822 31.7686 6.46987 32.1188 6.81464C32.4691 7.15942 32.7472 7.57043 32.9371 8.02374C33.1269 8.47705 33.2247 8.96361 33.2247 9.45508C33.2247 9.94654 33.1269 10.4331 32.9371 10.8864C32.7472 11.3397 32.4691 11.7507 32.1188 12.0955C31.7686 12.4403 31.3533 12.7119 30.897 12.8946C30.4408 13.0774 29.9527 13.1675 29.4613 13.1597Z" fill="white"/>
</svg>
