<svg width="16" height="16" viewBox="0 0 16 16" fill="none" xmlns="http://www.w3.org/2000/svg">
<path fill-rule="evenodd" clip-rule="evenodd" d="M8.50999 4.796V6.493C8.86537 5.95168 9.35521 5.5119 9.93156 5.21671C10.5079 4.92152 11.151 4.78103 11.798 4.809C15.253 4.809 16 6.969 16 9.779V15.5H12.8V10.428C12.8 9.218 12.556 7.662 10.672 7.662C8.84499 7.662 8.53299 8.979 8.53299 10.338V15.5H5.34299V4.796H8.50999ZM3.19999 2.106C3.1996 2.423 3.10563 2.73284 2.92987 2.99665C2.75411 3.26047 2.50438 3.46653 2.21199 3.589C1.91972 3.71048 1.59791 3.74226 1.28753 3.68029C0.977139 3.61832 0.692207 3.4654 0.468992 3.241C0.245358 3.01646 0.093107 2.73081 0.0313847 2.41997C-0.0303376 2.10913 0.00122505 1.78698 0.122103 1.49403C0.242981 1.20108 0.447778 0.950407 0.710739 0.773539C0.973701 0.596671 1.28309 0.501502 1.59999 0.5C1.81061 0.499999 2.01916 0.541582 2.21368 0.622364C2.40819 0.703147 2.58484 0.821539 2.73349 0.970748C2.88214 1.11996 2.99987 1.29705 3.07993 1.49186C3.15998 1.68668 3.20078 1.89538 3.19999 2.106Z" fill="black" fill-opacity="0.69"/>
<path d="M3.2 4.80908H0V15.5001H3.2V4.80908Z" fill="black" fill-opacity="0.69"/>
</svg>
