<svg width="233" height="53" viewBox="0 0 233 53" fill="none" xmlns="http://www.w3.org/2000/svg">
<path d="M77.672 25.75H74.024L63.048 9.142V25.75H59.4V3.478H63.048L74.024 20.054V3.478H77.672V25.75ZM86.1105 6.454V12.982H93.7905V15.958H86.1105V22.774H94.7505V25.75H82.4625V3.478H94.7505V6.454H86.1105ZM128.204 3.51L121.612 25.75H117.484L112.812 8.918L107.852 25.75L103.756 25.782L97.4518 3.51H101.324L105.932 21.622L110.924 3.51H115.02L119.66 21.526L124.3 3.51H128.204ZM138.541 25.974C137.047 25.974 135.703 25.718 134.509 25.206C133.314 24.6727 132.375 23.926 131.693 22.966C131.01 22.006 130.669 20.886 130.669 19.606H134.573C134.658 20.566 135.031 21.3553 135.693 21.974C136.375 22.5927 137.325 22.902 138.541 22.902C139.799 22.902 140.781 22.6033 141.485 22.006C142.189 21.3873 142.541 20.598 142.541 19.638C142.541 18.8913 142.317 18.2833 141.869 17.814C141.442 17.3447 140.898 16.982 140.237 16.726C139.597 16.47 138.701 16.1927 137.549 15.894C136.098 15.51 134.914 15.126 133.997 14.742C133.101 14.3367 132.333 13.718 131.693 12.886C131.053 12.054 130.733 10.9447 130.733 9.558C130.733 8.278 131.053 7.158 131.693 6.198C132.333 5.238 133.229 4.502 134.381 3.99C135.533 3.478 136.866 3.222 138.381 3.222C140.535 3.222 142.295 3.766 143.661 4.854C145.047 5.92067 145.815 7.39267 145.965 9.27H141.933C141.869 8.45933 141.485 7.766 140.781 7.19C140.077 6.614 139.149 6.326 137.997 6.326C136.951 6.326 136.098 6.59267 135.437 7.126C134.775 7.65933 134.445 8.42733 134.445 9.43C134.445 10.1127 134.647 10.678 135.053 11.126C135.479 11.5527 136.013 11.894 136.653 12.15C137.293 12.406 138.167 12.6833 139.277 12.982C140.749 13.3873 141.943 13.7927 142.861 14.198C143.799 14.6033 144.589 15.2327 145.229 16.086C145.89 16.918 146.221 18.038 146.221 19.446C146.221 20.5767 145.911 21.6433 145.293 22.646C144.695 23.6487 143.81 24.4593 142.637 25.078C141.485 25.6753 140.119 25.974 138.541 25.974ZM166.077 10.134C166.077 11.2647 165.81 12.3313 165.277 13.334C164.744 14.3367 163.89 15.158 162.717 15.798C161.544 16.4167 160.04 16.726 158.205 16.726H154.173V25.75H150.525V3.51H158.205C159.912 3.51 161.352 3.80866 162.525 4.406C163.72 4.982 164.605 5.77133 165.181 6.774C165.778 7.77667 166.077 8.89667 166.077 10.134ZM158.205 13.75C159.592 13.75 160.626 13.4407 161.309 12.822C161.992 12.182 162.333 11.286 162.333 10.134C162.333 7.702 160.957 6.486 158.205 6.486H154.173V13.75H158.205ZM182.964 21.206H173.652L172.052 25.75H168.244L176.212 3.478H180.436L188.404 25.75H184.564L182.964 21.206ZM181.94 18.23L178.324 7.894L174.676 18.23H181.94ZM190.653 14.582C190.653 12.406 191.154 10.454 192.157 8.726C193.181 6.998 194.557 5.654 196.285 4.694C198.034 3.71266 199.943 3.222 202.013 3.222C204.381 3.222 206.482 3.80866 208.317 4.982C210.173 6.134 211.517 7.77667 212.349 9.91H207.965C207.389 8.73667 206.589 7.862 205.565 7.286C204.541 6.71 203.357 6.422 202.013 6.422C200.541 6.422 199.229 6.75267 198.077 7.414C196.925 8.07533 196.018 9.02467 195.357 10.262C194.717 11.4993 194.397 12.9393 194.397 14.582C194.397 16.2247 194.717 17.6647 195.357 18.902C196.018 20.1393 196.925 21.0993 198.077 21.782C199.229 22.4433 200.541 22.774 202.013 22.774C203.357 22.774 204.541 22.486 205.565 21.91C206.589 21.334 207.389 20.4593 207.965 19.286H212.349C211.517 21.4193 210.173 23.062 208.317 24.214C206.482 25.366 204.381 25.942 202.013 25.942C199.922 25.942 198.013 25.462 196.285 24.502C194.557 23.5207 193.181 22.166 192.157 20.438C191.154 18.71 190.653 16.758 190.653 14.582ZM230.987 3.51V6.486H225.067V25.75H221.419V6.486H215.467V3.51H230.987Z" fill="black"/>
<path d="M81.9922 49.75H80.2891V38.4766H81.8672L87.6562 46.4844H87.7812V38.4766H89.4844V49.75H87.9062L82.1172 41.7422H81.9922V49.75ZM92.1562 49.75V41.2422H93.8281V49.75H92.1562ZM92.9922 39.75C92.3672 39.75 91.9062 39.3047 91.9062 38.7266C91.9062 38.1406 92.3672 37.6953 92.9922 37.6953C93.6172 37.6953 94.0781 38.1406 94.0781 38.7266C94.0781 39.3047 93.6172 39.75 92.9922 39.75ZM99.8594 48.1719C101.297 48.1719 102.164 47.0938 102.164 45.3906C102.164 43.6953 101.289 42.6094 99.8594 42.6094C98.4141 42.6094 97.6016 43.6953 97.6016 45.3906C97.6016 47.0859 98.4141 48.1719 99.8594 48.1719ZM99.8828 53C97.7578 53 96.3828 52.0469 96.2031 50.6016H97.9219C98.0625 51.2188 98.7734 51.6172 99.9062 51.6172C101.305 51.6172 102.133 50.9531 102.133 49.8281V48.1953H102.008C101.492 49.1172 100.555 49.625 99.3828 49.625C97.2109 49.625 95.8672 47.9453 95.8672 45.3984C95.8672 42.8047 97.2266 41.1016 99.3984 41.1016C100.57 41.1016 101.594 41.6797 102.07 42.6016H102.203V41.2422H103.812V49.8203C103.812 51.7656 102.289 53 99.8828 53ZM109.742 42.5078C108.5 42.5078 107.633 43.3828 107.539 44.7109H111.836C111.797 43.375 110.984 42.5078 109.742 42.5078ZM111.828 47.4531H113.445C113.062 48.9766 111.703 49.9141 109.758 49.9141C107.32 49.9141 105.828 48.2422 105.828 45.5234C105.828 42.8047 107.352 41.0781 109.75 41.0781C112.117 41.0781 113.547 42.6953 113.547 45.3672V45.9531H107.539V46.0469C107.594 47.5391 108.461 48.4844 109.805 48.4844C110.82 48.4844 111.516 48.1172 111.828 47.4531ZM115.562 49.75V41.2422H117.18V42.5469H117.305C117.547 41.7109 118.492 41.1016 119.602 41.1016C119.852 41.1016 120.172 41.125 120.352 41.1719V42.8281C120.211 42.7812 119.711 42.7266 119.414 42.7266C118.141 42.7266 117.242 43.5312 117.242 44.7266V49.75H115.562ZM122 49.75V41.2422H123.672V49.75H122ZM122.836 39.75C122.211 39.75 121.75 39.3047 121.75 38.7266C121.75 38.1406 122.211 37.6953 122.836 37.6953C123.461 37.6953 123.922 38.1406 123.922 38.7266C123.922 39.3047 123.461 39.75 122.836 39.75ZM128.922 48.4766C130.188 48.4766 131.125 47.6719 131.125 46.6172V45.9062L129.047 46.0391C127.875 46.1172 127.344 46.5156 127.344 47.2656C127.344 48.0312 128.008 48.4766 128.922 48.4766ZM128.492 49.8906C126.852 49.8906 125.656 48.8984 125.656 47.3438C125.656 45.8125 126.797 44.9297 128.82 44.8047L131.125 44.6719V43.9375C131.125 43.0391 130.531 42.5312 129.383 42.5312C128.445 42.5312 127.797 42.875 127.609 43.4766H125.984C126.156 42.0156 127.531 41.0781 129.461 41.0781C131.594 41.0781 132.797 42.1406 132.797 43.9375V49.75H131.18V48.5547H131.047C130.539 49.4062 129.609 49.8906 128.492 49.8906ZM146.789 48.1406V49.75H139.758V38.4766H141.508V48.1406H146.789ZM148.844 49.75V41.2422H150.516V49.75H148.844ZM149.68 39.75C149.055 39.75 148.594 39.3047 148.594 38.7266C148.594 38.1406 149.055 37.6953 149.68 37.6953C150.305 37.6953 150.766 38.1406 150.766 38.7266C150.766 39.3047 150.305 39.75 149.68 39.75ZM152.984 49.75V41.2422H154.602V42.6094H154.727C155.102 41.6484 155.961 41.0781 157.094 41.0781C158.258 41.0781 159.062 41.6797 159.438 42.6094H159.57C160 41.6797 160.977 41.0781 162.156 41.0781C163.875 41.0781 164.875 42.1172 164.875 43.8906V49.75H163.195V44.3281C163.195 43.1797 162.648 42.6172 161.547 42.6172C160.461 42.6172 159.75 43.3984 159.75 44.3984V49.75H158.102V44.1641C158.102 43.2031 157.461 42.6172 156.461 42.6172C155.438 42.6172 154.664 43.4531 154.664 44.5469V49.75H152.984ZM167.266 49.75V41.2422H168.938V49.75H167.266ZM168.102 39.75C167.477 39.75 167.016 39.3047 167.016 38.7266C167.016 38.1406 167.477 37.6953 168.102 37.6953C168.727 37.6953 169.188 38.1406 169.188 38.7266C169.188 39.3047 168.727 39.75 168.102 39.75ZM172 39.125H173.68V41.2812H175.523V42.6953H173.68V47.0703C173.68 47.9609 174.047 48.3516 174.883 48.3516C175.141 48.3516 175.289 48.3359 175.523 48.3125V49.7109C175.25 49.7578 174.938 49.7969 174.609 49.7969C172.742 49.7969 172 49.1406 172 47.5V42.6953H170.648V41.2812H172V39.125ZM180.898 42.5078C179.656 42.5078 178.789 43.3828 178.695 44.7109H182.992C182.953 43.375 182.141 42.5078 180.898 42.5078ZM182.984 47.4531H184.602C184.219 48.9766 182.859 49.9141 180.914 49.9141C178.477 49.9141 176.984 48.2422 176.984 45.5234C176.984 42.8047 178.508 41.0781 180.906 41.0781C183.273 41.0781 184.703 42.6953 184.703 45.3672V45.9531H178.695V46.0469C178.75 47.5391 179.617 48.4844 180.961 48.4844C181.977 48.4844 182.672 48.1172 182.984 47.4531ZM189.828 49.8906C187.664 49.8906 186.297 48.1875 186.297 45.4922C186.297 42.8047 187.68 41.1016 189.828 41.1016C190.992 41.1016 191.977 41.6562 192.438 42.5938H192.562V37.9219H194.242V49.75H192.633V48.4062H192.5C191.992 49.3359 191 49.8906 189.828 49.8906ZM190.305 42.6094C188.891 42.6094 188.031 43.7031 188.031 45.4922C188.031 47.2969 188.883 48.3828 190.305 48.3828C191.719 48.3828 192.594 47.2812 192.594 45.5C192.594 43.7266 191.711 42.6094 190.305 42.6094Z" fill="#608BC1"/>
<circle cx="25" cy="25" r="25" fill="#133E87"/>
<g clip-path="url(#clip0_103_257)">
<path d="M36.715 22.165L25.465 13.165C25.332 13.0585 25.1667 13.0005 24.9963 13.0005C24.8258 13.0005 24.6605 13.0585 24.5275 13.165L13.2775 22.165C13.1561 22.2624 13.0681 22.3951 13.0255 22.5447C12.9829 22.6944 12.9879 22.8536 13.0398 23.0002C13.0917 23.1469 13.188 23.2738 13.3152 23.3634C13.4425 23.4529 13.5944 23.5006 13.75 23.5H15.25V36.25C15.25 36.4489 15.329 36.6397 15.4697 36.7803C15.6103 36.921 15.8011 37 16 37H31V35.5H28V28.75C28 28.5511 27.921 28.3603 27.7803 28.2197C27.6397 28.079 27.4489 28 27.25 28H22.75C22.5511 28 22.3603 28.079 22.2197 28.2197C22.079 28.3603 22 28.5511 22 28.75V35.5H16.75V23.5H29.5V22H15.8875L25 14.71L34.1125 22H34C33.8011 22 33.6103 22.079 33.4697 22.2197C33.329 22.3603 33.25 22.5511 33.25 22.75V27.25H34.75V23.5H36.25C36.405 23.4991 36.5558 23.4502 36.6819 23.3601C36.8079 23.27 36.903 23.143 36.9539 22.9967C37.0049 22.8504 37.0093 22.6918 36.9665 22.5429C36.9237 22.394 36.8359 22.262 36.715 22.165ZM23.5 29.5H26.5V35.5H23.5V29.5Z" fill="white"/>
<path d="M31.75 32.9425L30.7825 31.975L29.725 33.0325L31.225 34.5325C31.3655 34.6722 31.5556 34.7506 31.7537 34.7506C31.9519 34.7506 32.142 34.6722 32.2825 34.5325L36.7825 30.0325L35.725 28.975L31.75 32.9425Z" fill="white"/>
</g>
<defs>
<clipPath id="clip0_103_257">
<rect width="24" height="24" fill="white" transform="translate(13 13)"/>
</clipPath>
</defs>
</svg>
