<svg width="23" height="24" viewBox="0 0 23 24" fill="none" xmlns="http://www.w3.org/2000/svg">
<path d="M3.83494 19.6667C3.30786 19.6667 2.8568 19.4792 2.48177 19.1041C2.10675 18.7291 1.91891 18.2777 1.91827 17.75V6.25001C1.91827 5.72293 2.10611 5.27187 2.48177 4.89684C2.85744 4.52182 3.3085 4.33398 3.83494 4.33334H19.1683C19.6954 4.33334 20.1467 4.52118 20.5224 4.89684C20.8981 5.27251 21.0856 5.72357 21.0849 6.25001V17.75C21.0849 18.2771 20.8974 18.7285 20.5224 19.1041C20.1474 19.4798 19.696 19.6673 19.1683 19.6667H3.83494ZM11.5016 12.9583L3.83494 8.16668V17.75H19.1683V8.16668L11.5016 12.9583ZM11.5016 11.0417L19.1683 6.25001H3.83494L11.5016 11.0417ZM3.83494 8.16668V6.25001V17.75V8.16668Z" fill="white"/>
</svg>
