<svg width="42" height="42" viewBox="0 0 42 42" fill="none" xmlns="http://www.w3.org/2000/svg">
<path d="M24.7975 23.9925L27.2475 19.7575C27.405 19.495 27.335 19.1625 27.1075 18.97L24.5175 16.94C24.57 16.555 24.605 16.1525 24.605 15.75C24.605 15.3475 24.57 14.945 24.5175 14.5425L27.1075 12.5125C27.335 12.32 27.405 11.9875 27.2475 11.725L24.7975 7.49C24.64 7.2275 24.325 7.1225 24.045 7.2275L21 8.4525C20.37 7.9625 19.6875 7.56 18.935 7.245L18.48 4.0075C18.4506 3.86596 18.374 3.73862 18.2627 3.6464C18.1514 3.55417 18.012 3.50255 17.8675 3.5H12.9675C12.67 3.5 12.4075 3.7275 12.355 4.025L11.9 7.2625C11.165 7.5775 10.465 7.98 9.83501 8.47L6.79001 7.245C6.51001 7.14 6.19501 7.245 6.03751 7.5075L3.58751 11.7425C3.43001 12.005 3.50001 12.3375 3.72751 12.53L6.31751 14.56C6.26501 14.945 6.23001 15.3475 6.23001 15.75C6.23001 16.1525 6.26501 16.555 6.31751 16.9575L3.72751 18.9875C3.50001 19.18 3.43001 19.5125 3.58751 19.775L6.03751 24.01C6.19501 24.2725 6.51001 24.3775 6.79001 24.2725L9.83501 23.0475C10.465 23.5375 11.1475 23.94 11.9 24.255L12.355 27.4925C12.4075 27.7725 12.67 28 12.9675 28H17.8675C18.165 28 18.4275 27.7725 18.48 27.475L18.935 24.2375C19.67 23.9225 20.37 23.52 21 23.03L24.045 24.255C24.325 24.36 24.64 24.255 24.7975 23.9925ZM15.4175 19.25C13.4925 19.25 11.9175 17.675 11.9175 15.75C11.9175 13.825 13.4925 12.25 15.4175 12.25C17.3425 12.25 18.9175 13.825 18.9175 15.75C18.9175 17.675 17.3425 19.25 15.4175 19.25ZM38.36 32.6725L36.68 31.3775C36.715 31.1325 36.75 30.87 36.75 30.6075C36.75 30.345 36.7325 30.0825 36.68 29.8375L38.3425 28.5425C38.4825 28.42 38.535 28.21 38.43 28.035L36.855 25.3225C36.7675 25.1475 36.5575 25.095 36.365 25.1475L34.4225 25.935C34.02 25.62 33.5825 25.3575 33.0925 25.165L32.795 23.1C32.7881 23.0065 32.7466 22.9188 32.6787 22.8542C32.6108 22.7895 32.5213 22.7524 32.4275 22.75H29.295C29.1025 22.75 28.9275 22.89 28.91 23.0825L28.6125 25.1475C28.14 25.3575 27.685 25.6025 27.2825 25.9175L25.34 25.13C25.2508 25.0965 25.1527 25.0956 25.0629 25.1277C24.9732 25.1597 24.8978 25.2226 24.85 25.305L23.275 28.0175C23.1875 28.1925 23.205 28.4025 23.3625 28.525L25.025 29.82C24.9541 30.3309 24.9541 30.8491 25.025 31.36L23.3625 32.655C23.2225 32.7775 23.17 32.9875 23.275 33.1625L24.85 35.875C24.9375 36.05 25.1475 36.1025 25.34 36.05L27.2825 35.2625C27.685 35.5775 28.1225 35.84 28.6125 36.0325L28.91 38.0975C28.945 38.29 29.1025 38.43 29.295 38.43H32.4275C32.62 38.43 32.795 38.29 32.8125 38.0975L33.11 36.0325C33.5825 35.8225 34.0375 35.5775 34.4225 35.2625L36.3825 36.05C36.5575 36.12 36.7675 36.05 36.8725 35.875L38.4475 33.1625C38.5525 33.005 38.5 32.795 38.36 32.6725ZM30.8525 32.9525C30.5421 32.9524 30.2348 32.8911 29.9481 32.7723C29.6615 32.6534 29.401 32.4792 29.1816 32.2597C28.9622 32.0401 28.7882 31.7795 28.6696 31.4927C28.5509 31.206 28.4899 30.8986 28.49 30.5883C28.4901 30.2779 28.5514 29.9706 28.6702 29.6839C28.7891 29.3972 28.9633 29.1367 29.1828 28.9173C29.4024 28.698 29.663 28.524 29.9498 28.4053C30.2365 28.2867 30.5439 28.2256 30.8543 28.2258C31.4811 28.226 32.0821 28.4752 32.5252 28.9186C32.9682 29.362 33.217 29.9632 33.2168 30.59C33.2165 31.2168 32.9673 31.8179 32.5239 32.2609C32.0805 32.704 31.4793 32.9527 30.8525 32.9525Z" fill="white"/>
</svg>
