<svg width="179" height="50" viewBox="0 0 179 50" fill="none" xmlns="http://www.w3.org/2000/svg">
<path d="M74.768 15.3396V18.3156H68.848V37.5796H65.2V18.3156H59.248V15.3396H74.768ZM90.0145 37.5796L84.8945 28.6836H82.1105V37.5796H78.4625V15.3396H86.1425C87.8492 15.3396 89.2892 15.6383 90.4625 16.2356C91.6572 16.8329 92.5425 17.6329 93.1185 18.6356C93.7158 19.6383 94.0145 20.7583 94.0145 21.9956C94.0145 23.4463 93.5878 24.7689 92.7345 25.9636C91.9025 27.1369 90.6118 27.9369 88.8625 28.3636L94.3665 37.5796H90.0145ZM82.1105 25.7716H86.1425C87.5078 25.7716 88.5318 25.4303 89.2145 24.7476C89.9185 24.0649 90.2705 23.1476 90.2705 21.9956C90.2705 20.8436 89.9292 19.9476 89.2465 19.3076C88.5638 18.6463 87.5292 18.3156 86.1425 18.3156H82.1105V25.7716ZM102.329 15.3396V37.5796H98.6813V15.3396H102.329ZM130.543 15.3396V37.5796H126.895V22.3476L120.111 37.5796H117.583L110.767 22.3476V37.5796H107.119V15.3396H111.055L118.863 32.7796L126.639 15.3396H130.543Z" fill="black"/>
<path d="M156.635 37.24L164.987 15H169.211L177.595 37.24H173.691L167.099 18.744L160.475 37.24H156.635ZM134.416 37.24L142.768 15H146.992L155.376 37.24H151.472L144.88 18.744L138.256 37.24H134.416Z" fill="#608BC1"/>
<circle cx="25" cy="25" r="25" fill="#133E87"/>
<g clip-path="url(#clip0_59_271)">
<path d="M36.715 22.165L25.465 13.165C25.332 13.0585 25.1667 13.0005 24.9963 13.0005C24.8258 13.0005 24.6605 13.0585 24.5275 13.165L13.2775 22.165C13.1561 22.2624 13.0681 22.3951 13.0255 22.5447C12.9829 22.6944 12.9879 22.8536 13.0398 23.0003C13.0917 23.1469 13.188 23.2738 13.3152 23.3634C13.4425 23.4529 13.5944 23.5007 13.75 23.5H15.25V36.25C15.25 36.4489 15.329 36.6397 15.4697 36.7803C15.6103 36.921 15.8011 37 16 37H31V35.5H28V28.75C28 28.5511 27.921 28.3603 27.7803 28.2197C27.6397 28.079 27.4489 28 27.25 28H22.75C22.5511 28 22.3603 28.079 22.2197 28.2197C22.079 28.3603 22 28.5511 22 28.75V35.5H16.75V23.5H29.5V22H15.8875L25 14.71L34.1125 22H34C33.8011 22 33.6103 22.079 33.4697 22.2197C33.329 22.3603 33.25 22.5511 33.25 22.75V27.25H34.75V23.5H36.25C36.405 23.4991 36.5558 23.4503 36.6819 23.3601C36.8079 23.27 36.903 23.1431 36.9539 22.9967C37.0049 22.8504 37.0093 22.6919 36.9665 22.5429C36.9237 22.394 36.8359 22.262 36.715 22.165ZM23.5 29.5H26.5V35.5H23.5V29.5Z" fill="white"/>
<path d="M31.75 32.9426L30.7825 31.9751L29.725 33.0326L31.225 34.5326C31.3655 34.6723 31.5556 34.7507 31.7537 34.7507C31.9519 34.7507 32.142 34.6723 32.2825 34.5326L36.7825 30.0326L35.725 28.9751L31.75 32.9426Z" fill="white"/>
</g>
<defs>
<clipPath id="clip0_59_271">
<rect width="24" height="24" fill="white" transform="translate(13 13)"/>
</clipPath>
</defs>
</svg>
